<svg id="Layer_1" data-name="Layer 1" xmlns="http://www.w3.org/2000/svg" xmlns:xlink="http://www.w3.org/1999/xlink" viewBox="0 0 182.98 186"><defs><style>.cls-1,.cls-15{fill:#4e4e4e;}.cls-2{fill:url(#radial-gradient);}.cls-3{fill:url(#radial-gradient-2);}.cls-4{fill:url(#radial-gradient-3);}.cls-5{fill:url(#radial-gradient-4);}.cls-6{fill:url(#radial-gradient-5);}.cls-7{fill:url(#radial-gradient-6);}.cls-8{fill:url(#radial-gradient-7);}.cls-9{fill:url(#radial-gradient-8);}.cls-10,.cls-16{fill:#e6e6e5;}.cls-11{fill:url(#radial-gradient-9);}.cls-12{fill:url(#radial-gradient-10);}.cls-13{fill:url(#radial-gradient-11);}.cls-14{fill:url(#radial-gradient-12);}.cls-15,.cls-16{font-size:23px;font-family:Myriad Pro;font-weight:700;}</style><radialGradient id="radial-gradient" cx="563.39" cy="-198.52" r="20.11" gradientTransform="matrix(0.5, 0, 0, -0.5, -262.94, -49.03)" gradientUnits="userSpaceOnUse"><stop offset="0" stop-color="#ffcf4f"/><stop offset="1" stop-color="#f4c236"/></radialGradient><radialGradient id="radial-gradient-2" cx="551.34" cy="-188.31" r="27.66" gradientTransform="matrix(0.5, 0, 0, -0.5, -262.94, -49.03)" gradientUnits="userSpaceOnUse"><stop offset="0" stop-color="#08a960"/><stop offset="1" stop-color="#07914b"/></radialGradient><radialGradient id="radial-gradient-3" cx="560.79" cy="-148.63" r="40.54" gradientTransform="matrix(0.5, 0, 0, -0.5, -262.94, -49.03)" gradientUnits="userSpaceOnUse"><stop offset="0" stop-color="#567fc0"/><stop offset="1" stop-color="#557fc0"/></radialGradient><radialGradient id="radial-gradient-4" cx="572.86" cy="-138.66" r="33.06" gradientTransform="matrix(0.5, 0, 0, -0.5, -262.94, -49.03)" gradientUnits="userSpaceOnUse"><stop offset="0" stop-color="#e14c40"/><stop offset="1" stop-color="#cd392d"/></radialGradient><radialGradient id="radial-gradient-5" cx="563.39" cy="-325.03" r="20.11" gradientTransform="matrix(0.5, 0, 0, -0.5, -262.94, -49.03)" gradientUnits="userSpaceOnUse"><stop offset="0" stop-color="#ccc"/><stop offset="1" stop-color="silver"/></radialGradient><radialGradient id="radial-gradient-6" cx="551.34" cy="-314.81" r="27.66" gradientTransform="matrix(0.5, 0, 0, -0.5, -262.94, -49.03)" gradientUnits="userSpaceOnUse"><stop offset="0" stop-color="#a0a0a0"/><stop offset="1" stop-color="#7b7b7b"/></radialGradient><radialGradient id="radial-gradient-7" cx="560.79" cy="-275.13" r="40.54" gradientTransform="matrix(0.5, 0, 0, -0.5, -262.94, -49.03)" gradientUnits="userSpaceOnUse"><stop offset="0" stop-color="#848484"/><stop offset="1" stop-color="#838383"/></radialGradient><radialGradient id="radial-gradient-8" cx="572.86" cy="-265.17" r="33.06" gradientTransform="matrix(0.5, 0, 0, -0.5, -262.94, -49.03)" gradientUnits="userSpaceOnUse"><stop offset="0" stop-color="#626262"/><stop offset="1" stop-color="#474747"/></radialGradient><radialGradient id="radial-gradient-9" cx="563.71" cy="-451.53" r="20.11" xlink:href="#radial-gradient"/><radialGradient id="radial-gradient-10" cx="551.66" cy="-441.32" r="27.66" xlink:href="#radial-gradient-2"/><radialGradient id="radial-gradient-11" cx="561.11" cy="-401.64" r="40.54" xlink:href="#radial-gradient-3"/><radialGradient id="radial-gradient-12" cx="573.17" cy="-391.67" r="33.06" xlink:href="#radial-gradient-4"/></defs><title>logos</title><path class="cls-1" d="M115.91,18a8.32,8.32,0,0,1-2.19,6.19,8.38,8.38,0,0,1-6.17,2.17H102.4v-16h5.51a8.27,8.27,0,0,1,5.92,2A7.48,7.48,0,0,1,115.91,18Zm-4.46.15a5.12,5.12,0,0,0-.87-3.27A3.19,3.19,0,0,0,108,13.79h-1.25v9h1a3.46,3.46,0,0,0,2.87-1.15A5.57,5.57,0,0,0,111.45,18.12Z" transform="translate(-0.84 -1)"/><path class="cls-1" d="M123.13,26.54a6.59,6.59,0,0,1-4.78-1.65,6.24,6.24,0,0,1-1.7-4.7,6.81,6.81,0,0,1,1.58-4.83,5.88,5.88,0,0,1,4.51-1.68A6,6,0,0,1,127,15.14a5.59,5.59,0,0,1,1.52,4.22v1.91h-7.61a2.13,2.13,0,0,0,.76,1.63,2.94,2.94,0,0,0,1.94.59,9.28,9.28,0,0,0,2.06-.21,10.18,10.18,0,0,0,2-.73v3.08a7.48,7.48,0,0,1-2.07.71A14.07,14.07,0,0,1,123.13,26.54Zm-0.25-9.95a1.76,1.76,0,0,0-1.26.48,2.24,2.24,0,0,0-.59,1.5h3.66a2.15,2.15,0,0,0-.51-1.44A1.66,1.66,0,0,0,122.88,16.6Z" transform="translate(-0.84 -1)"/><path class="cls-1" d="M132.85,26.33l-4.7-12.43h4.44l2.09,7.35,0,0.19c0,0.09,0,.19.07,0.31s0,0.25.06,0.38a2.89,2.89,0,0,1,0,.38H135a4.45,4.45,0,0,1,.2-1.24l2.19-7.37h4.43l-4.7,12.43h-4.21Z" transform="translate(-0.84 -1)"/><path class="cls-1" d="M146.38,26.33h-4.23v-16h9.4v3.48h-5.17v3.06h4.77V20.3h-4.77v6h0Z" transform="translate(-0.84 -1)"/><path class="cls-1" d="M158.53,26.54a6.59,6.59,0,0,1-4.78-1.65,6.24,6.24,0,0,1-1.7-4.7,6.8,6.8,0,0,1,1.58-4.83,5.88,5.88,0,0,1,4.51-1.68,6,6,0,0,1,4.3,1.46,5.59,5.59,0,0,1,1.52,4.22v1.91h-7.61a2.13,2.13,0,0,0,.76,1.63,2.94,2.94,0,0,0,1.94.59,9.3,9.3,0,0,0,2.06-.21,10.23,10.23,0,0,0,2-.73v3.08a7.48,7.48,0,0,1-2.07.71A14.09,14.09,0,0,1,158.53,26.54Zm-0.25-9.95a1.76,1.76,0,0,0-1.26.48,2.25,2.25,0,0,0-.59,1.5h3.66a2.16,2.16,0,0,0-.51-1.44A1.66,1.66,0,0,0,158.28,16.6Z" transform="translate(-0.84 -1)"/><path class="cls-1" d="M174.54,22.51a3.54,3.54,0,0,1-1.35,3,6.33,6.33,0,0,1-3.87,1,16.67,16.67,0,0,1-2.38-.15,10.07,10.07,0,0,1-2.07-.54V22.42a12.76,12.76,0,0,0,2.17.72,9.09,9.09,0,0,0,2.11.28q1.38,0,1.38-.64a0.72,0.72,0,0,0-.39-0.59,17.67,17.67,0,0,0-2.25-1,5.6,5.6,0,0,1-2.37-1.6,3.66,3.66,0,0,1-.68-2.26,3.14,3.14,0,0,1,1.33-2.7,6.3,6.3,0,0,1,3.76-1,9.4,9.4,0,0,1,2.29.27,13.54,13.54,0,0,1,2.23.78l-1.15,2.76a12.79,12.79,0,0,0-1.8-.65,5.94,5.94,0,0,0-1.55-.27q-1,0-1,.52a0.64,0.64,0,0,0,.36.54,19.57,19.57,0,0,0,2.11.92,8.07,8.07,0,0,1,1.93,1.05,3.15,3.15,0,0,1,.94,1.21A4.27,4.27,0,0,1,174.54,22.51Z" transform="translate(-0.84 -1)"/><path class="cls-1" d="M181.6,23.16a6.3,6.3,0,0,0,2.06-.43v3.13a8.28,8.28,0,0,1-1.64.53,9.27,9.27,0,0,1-1.82.16,4,4,0,0,1-3.09-1.06,4.77,4.77,0,0,1-.95-3.25V17.11h-1.49V15.37L176.57,14l1.1-2.61h2.79V13.9h3v3.21h-3v4.84A1,1,0,0,0,181.6,23.16Z" transform="translate(-0.84 -1)"/><path class="cls-1" d="M60.28,47.89H50V46l3.9-3.92a33.28,33.28,0,0,0,2.29-2.51A6,6,0,0,0,57,38.23a3.76,3.76,0,0,0,.26-1.4,2.13,2.13,0,0,0-.62-1.61,2.36,2.36,0,0,0-1.7-.59,4.53,4.53,0,0,0-1.68.32,7.85,7.85,0,0,0-1.88,1.16L50.11,34.5A8.47,8.47,0,0,1,52.57,33a7.19,7.19,0,0,1,2.53-.44,5,5,0,0,1,3.38,1.1,3.72,3.72,0,0,1,1.27,3,5.22,5.22,0,0,1-.37,1.94,7.92,7.92,0,0,1-1.13,1.9,25.74,25.74,0,0,1-2.53,2.64L53.1,45.64v0.1h7.18v2.14h0Z" transform="translate(-0.84 -1)"/><path class="cls-1" d="M71.1,40.32a10.75,10.75,0,0,1-1.27,5.85,4.78,4.78,0,0,1-7.7-.06,10.56,10.56,0,0,1-1.3-5.79q0-4,1.27-5.9a4.79,4.79,0,0,1,7.7.09A10.65,10.65,0,0,1,71.1,40.32Zm-7.81,0a11,11,0,0,0,.64,4.42,2.22,2.22,0,0,0,4.08,0,10.88,10.88,0,0,0,.65-4.4,11,11,0,0,0-.65-4.4,2.22,2.22,0,0,0-4.08,0A11.12,11.12,0,0,0,63.29,40.32Z" transform="translate(-0.84 -1)"/><path class="cls-1" d="M78.81,47.89H76.38V38.12q0-1.75.08-2.77-0.24.25-.58,0.55t-2.32,1.9l-1.22-1.54,4.45-3.5h2V47.89h0Z" transform="translate(-0.84 -1)"/><path class="cls-1" d="M107.33,43.78a3.81,3.81,0,0,1-1.46,3.17,6.35,6.35,0,0,1-4,1.15,9.6,9.6,0,0,1-4.2-.8V45a11.39,11.39,0,0,0,2.2.76A9.28,9.28,0,0,0,102,46a3.44,3.44,0,0,0,2.17-.56,1.82,1.82,0,0,0,.7-1.5,1.88,1.88,0,0,0-.64-1.44,9.65,9.65,0,0,0-2.65-1.4,7,7,0,0,1-2.92-1.91,4.05,4.05,0,0,1-.85-2.59,3.62,3.62,0,0,1,1.35-3,5.58,5.58,0,0,1,3.61-1.09,10.6,10.6,0,0,1,4.32,1l-0.79,2a9.46,9.46,0,0,0-3.6-.85,2.76,2.76,0,0,0-1.82.52,1.72,1.72,0,0,0-.62,1.38,2,2,0,0,0,.25,1,2.52,2.52,0,0,0,.82.79,13.74,13.74,0,0,0,2,1,11.2,11.2,0,0,1,2.44,1.29A3.82,3.82,0,0,1,107,42,4.08,4.08,0,0,1,107.33,43.78Z" transform="translate(-0.84 -1)"/><path class="cls-1" d="M113.73,48.09a5.53,5.53,0,0,1-4.17-1.56,5.91,5.91,0,0,1-1.5-4.29,6.48,6.48,0,0,1,1.4-4.41,4.82,4.82,0,0,1,3.84-1.6,4.72,4.72,0,0,1,3.58,1.38,5.26,5.26,0,0,1,1.31,3.79v1.31h-7.62a3.76,3.76,0,0,0,.9,2.56,3.14,3.14,0,0,0,2.39.9,8.8,8.8,0,0,0,1.89-.19,9.81,9.81,0,0,0,1.88-.64v2a7.44,7.44,0,0,1-1.8.6A11,11,0,0,1,113.73,48.09Zm-0.44-10a2.44,2.44,0,0,0-1.86.73A3.51,3.51,0,0,0,110.6,41h5.19a3.17,3.17,0,0,0-.68-2.15A2.33,2.33,0,0,0,113.29,38.08Z" transform="translate(-0.84 -1)"/><path class="cls-1" d="M126.83,47.89l-0.49-1.59h-0.08a4.68,4.68,0,0,1-1.67,1.42,5.26,5.26,0,0,1-2.15.38,3.64,3.64,0,0,1-2.63-.91,3.4,3.4,0,0,1-.95-2.58,3,3,0,0,1,1.31-2.67,7.57,7.57,0,0,1,4-1l2-.06V40.28a2.32,2.32,0,0,0-.51-1.64,2.09,2.09,0,0,0-1.59-.54,5.52,5.52,0,0,0-1.69.26,12.75,12.75,0,0,0-1.55.61L120,37.23a8.52,8.52,0,0,1,2-.74,9.37,9.37,0,0,1,2.09-.25,5,5,0,0,1,3.29,1,3.73,3.73,0,0,1,1.11,3v7.71h-1.74Zm-3.62-1.66a3,3,0,0,0,2.13-.74,2.69,2.69,0,0,0,.8-2.07v-1l-1.47.06a5,5,0,0,0-2.5.57,1.74,1.74,0,0,0-.78,1.57,1.53,1.53,0,0,0,.46,1.18A2,2,0,0,0,123.21,46.23Z" transform="translate(-0.84 -1)"/><path class="cls-1" d="M138.37,44.63a3,3,0,0,1-1.22,2.57,5.84,5.84,0,0,1-3.5.9A8.26,8.26,0,0,1,130,47.4V45.3a9,9,0,0,0,3.76.93q2.25,0,2.24-1.35a1.07,1.07,0,0,0-.25-0.72,3,3,0,0,0-.82-0.6,14,14,0,0,0-1.58-.7,7.33,7.33,0,0,1-2.67-1.53,2.83,2.83,0,0,1-.7-2,2.61,2.61,0,0,1,1.18-2.28,5.62,5.62,0,0,1,3.22-.81,9.11,9.11,0,0,1,3.82.82l-0.79,1.83a8.5,8.5,0,0,0-3.11-.77q-1.92,0-1.92,1.1a1.1,1.1,0,0,0,.5.91,11,11,0,0,0,2.19,1,10.09,10.09,0,0,1,2.06,1A2.79,2.79,0,0,1,138.37,44.63Z" transform="translate(-0.84 -1)"/><path class="cls-1" d="M149.88,42.15a6.24,6.24,0,0,1-1.44,4.38,5.15,5.15,0,0,1-4,1.57,5.49,5.49,0,0,1-2.83-.72,4.78,4.78,0,0,1-1.89-2.08,7.08,7.08,0,0,1-.66-3.15,6.21,6.21,0,0,1,1.43-4.35,5.18,5.18,0,0,1,4-1.56,5,5,0,0,1,3.93,1.6A6.17,6.17,0,0,1,149.88,42.15Zm-8.33,0q0,4,2.93,4t2.9-4q0-3.92-2.92-3.92a2.49,2.49,0,0,0-2.22,1A5.16,5.16,0,0,0,141.55,42.15Z" transform="translate(-0.84 -1)"/><path class="cls-1" d="M161.46,47.89H159v-7a3.08,3.08,0,0,0-.53-2,2.06,2.06,0,0,0-1.69-.65,2.69,2.69,0,0,0-2.26.91,5,5,0,0,0-.71,3.05v5.7H151.4V36.44h1.9l0.34,1.5h0.12a3.39,3.39,0,0,1,1.47-1.26,4.93,4.93,0,0,1,2.11-.44q4.12,0,4.12,4.19v7.46Z" transform="translate(-0.84 -1)"/><path class="cls-1" d="M55.57,17.31h6.92V26a19,19,0,0,1-6.2,1,7.49,7.49,0,0,1-5.73-2.15,8.61,8.61,0,0,1-2-6.13,8.05,8.05,0,0,1,2.22-6A8.52,8.52,0,0,1,57,10.44a13.76,13.76,0,0,1,2.86.28,12.1,12.1,0,0,1,2.34.72l-1.37,3.4A8.49,8.49,0,0,0,57,14a3.62,3.62,0,0,0-2.93,1.23,5.34,5.34,0,0,0-1,3.53A5.41,5.41,0,0,0,54,22.18a3.25,3.25,0,0,0,2.7,1.18,7.89,7.89,0,0,0,1.78-.19V20.66H55.57V17.31Z" transform="translate(-0.84 -1)"/><path class="cls-1" d="M78,18.34a8.29,8.29,0,0,1-2.21,6.19A8.49,8.49,0,0,1,69.6,26.7H64.41v-16H70a8.37,8.37,0,0,1,6,2A7.45,7.45,0,0,1,78,18.34Zm-4.5.15a5.1,5.1,0,0,0-.87-3.27A3.23,3.23,0,0,0,70,14.16H68.75v9h1A3.5,3.5,0,0,0,72.61,22,5.54,5.54,0,0,0,73.53,18.5Z" transform="translate(-0.84 -1)"/><path class="cls-1" d="M86,17.31h6.92V26a19,19,0,0,1-6.2,1A7.49,7.49,0,0,1,81,24.77a8.61,8.61,0,0,1-2-6.13,8.05,8.05,0,0,1,2.22-6,8.52,8.52,0,0,1,6.21-2.16,13.76,13.76,0,0,1,2.86.28,12.1,12.1,0,0,1,2.34.72l-1.37,3.4A8.49,8.49,0,0,0,87.41,14a3.62,3.62,0,0,0-2.93,1.23,5.34,5.34,0,0,0-1,3.53,5.41,5.41,0,0,0,.94,3.43,3.25,3.25,0,0,0,2.7,1.18,7.89,7.89,0,0,0,1.78-.19V20.66H86V17.31Z" transform="translate(-0.84 -1)"/><path class="cls-2" d="M8.91,61H15.7a5.75,5.75,0,0,0,4.43-2.51L25.85,49a5.38,5.38,0,0,0-.12-4.71l-3.38-5.59Z" transform="translate(-0.84 -1)"/><path class="cls-3" d="M16.21,33.51L1.11,58.76C0.52,60,1.13,61,2.63,61H8.91L22.36,38.67,16.21,28.49a5.38,5.38,0,0,1,0,5" transform="translate(-0.84 -1)"/><path class="cls-4" d="M2.63,1C1,1,.38,2.13,1.21,3.51L25.73,44.26A5.38,5.38,0,0,1,25.85,49l6-9.92L8.91,1H2.63Z" transform="translate(-0.84 -1)"/><path class="cls-5" d="M8.91,1l22.9,38,3.32-5.53a5.38,5.38,0,0,0,0-5l-15-25A5.76,5.76,0,0,0,15.7,1H8.91Z" transform="translate(-0.84 -1)"/><path class="cls-1" d="M115.91,81a7.6,7.6,0,0,1-8.36,8.36H102.4v-16h5.51a8.27,8.27,0,0,1,5.92,2A7.48,7.48,0,0,1,115.91,81Zm-4.46.15a5.12,5.12,0,0,0-.87-3.27A3.19,3.19,0,0,0,108,76.79h-1.25v9h1a3.46,3.46,0,0,0,2.87-1.15A5.58,5.58,0,0,0,111.45,81.12Z" transform="translate(-0.84 -1)"/><path class="cls-1" d="M123.13,89.54a6.59,6.59,0,0,1-4.78-1.65,6.24,6.24,0,0,1-1.7-4.7,6.8,6.8,0,0,1,1.58-4.83,5.88,5.88,0,0,1,4.51-1.68A6,6,0,0,1,127,78.14a5.59,5.59,0,0,1,1.52,4.22v1.91h-7.61a2.13,2.13,0,0,0,.76,1.63,2.94,2.94,0,0,0,1.94.59,9.28,9.28,0,0,0,2.06-.21,10.18,10.18,0,0,0,2-.73v3.08a7.48,7.48,0,0,1-2.07.71A14.38,14.38,0,0,1,123.13,89.54Zm-0.25-9.95a1.75,1.75,0,0,0-1.26.48,2.24,2.24,0,0,0-.59,1.5h3.66a2.15,2.15,0,0,0-.51-1.44A1.66,1.66,0,0,0,122.88,79.6Z" transform="translate(-0.84 -1)"/><path class="cls-1" d="M132.85,89.32l-4.7-12.43h4.44l2.09,7.35,0,0.19c0,0.09,0,.19.07,0.31s0,0.25.06,0.38a2.9,2.9,0,0,1,0,.38H135a4.45,4.45,0,0,1,.2-1.24l2.19-7.37h4.43l-4.7,12.43h-4.21Z" transform="translate(-0.84 -1)"/><path class="cls-1" d="M146.38,89.32h-4.23v-16h9.4v3.48h-5.17v3.06h4.77V83.3h-4.77v6h0Z" transform="translate(-0.84 -1)"/><path class="cls-1" d="M158.53,89.54a6.59,6.59,0,0,1-4.78-1.65,6.24,6.24,0,0,1-1.7-4.7,6.8,6.8,0,0,1,1.58-4.83,5.88,5.88,0,0,1,4.51-1.68,6,6,0,0,1,4.3,1.46,5.59,5.59,0,0,1,1.52,4.22v1.91h-7.61a2.13,2.13,0,0,0,.76,1.63,2.94,2.94,0,0,0,1.94.59,9.3,9.3,0,0,0,2.06-.21,10.23,10.23,0,0,0,2-.73v3.08a7.48,7.48,0,0,1-2.07.71A14.4,14.4,0,0,1,158.53,89.54Zm-0.25-9.95a1.76,1.76,0,0,0-1.26.48,2.25,2.25,0,0,0-.59,1.5h3.66a2.16,2.16,0,0,0-.51-1.44A1.66,1.66,0,0,0,158.28,79.6Z" transform="translate(-0.84 -1)"/><path class="cls-1" d="M174.54,85.51a3.54,3.54,0,0,1-1.35,3,6.33,6.33,0,0,1-3.87,1,16.82,16.82,0,0,1-2.38-.15,10,10,0,0,1-2.07-.54V85.42a12.68,12.68,0,0,0,2.17.72,9.09,9.09,0,0,0,2.11.29q1.38,0,1.38-.64a0.72,0.72,0,0,0-.39-0.59,17.67,17.67,0,0,0-2.25-1,5.59,5.59,0,0,1-2.37-1.6,3.66,3.66,0,0,1-.68-2.26,3.14,3.14,0,0,1,1.33-2.7,6.3,6.3,0,0,1,3.76-1,9.4,9.4,0,0,1,2.29.27,13.63,13.63,0,0,1,2.23.78l-1.15,2.76a12.79,12.79,0,0,0-1.8-.65,5.94,5.94,0,0,0-1.55-.27q-1,0-1,.52a0.64,0.64,0,0,0,.36.54,19.66,19.66,0,0,0,2.11.92,8.07,8.07,0,0,1,1.93,1.05,3.15,3.15,0,0,1,.94,1.21A4.27,4.27,0,0,1,174.54,85.51Z" transform="translate(-0.84 -1)"/><path class="cls-1" d="M181.6,86.15a6.3,6.3,0,0,0,2.06-.43v3.13a8.22,8.22,0,0,1-1.64.53,9.27,9.27,0,0,1-1.82.16,4,4,0,0,1-3.09-1.06,4.76,4.76,0,0,1-.95-3.25V80.11h-1.49V78.37L176.57,77l1.1-2.61h2.79V76.9h3v3.21h-3v4.84A1,1,0,0,0,181.6,86.15Z" transform="translate(-0.84 -1)"/><path class="cls-1" d="M60.28,110.89H50V109l3.9-3.92a33.48,33.48,0,0,0,2.29-2.51,6,6,0,0,0,.82-1.39,3.75,3.75,0,0,0,.26-1.4,2.12,2.12,0,0,0-.62-1.61,2.36,2.36,0,0,0-1.7-.59,4.53,4.53,0,0,0-1.68.32,7.87,7.87,0,0,0-1.88,1.16l-1.31-1.6A8.47,8.47,0,0,1,52.57,96a7.17,7.17,0,0,1,2.53-.44,5,5,0,0,1,3.38,1.1,3.72,3.72,0,0,1,1.27,3,5.21,5.21,0,0,1-.37,1.94,7.92,7.92,0,0,1-1.13,1.9,25.83,25.83,0,0,1-2.53,2.64l-2.63,2.54v0.1h7.18v2.14h0Z" transform="translate(-0.84 -1)"/><path class="cls-1" d="M71.1,103.32a10.75,10.75,0,0,1-1.27,5.85,4.78,4.78,0,0,1-7.7-.06,10.56,10.56,0,0,1-1.3-5.79q0-4,1.27-5.9a4.79,4.79,0,0,1,7.7.09A10.64,10.64,0,0,1,71.1,103.32Zm-7.81,0a11,11,0,0,0,.64,4.42,2.22,2.22,0,0,0,4.08,0,10.88,10.88,0,0,0,.65-4.4,11,11,0,0,0-.65-4.4,2.22,2.22,0,0,0-4.08,0A11.12,11.12,0,0,0,63.29,103.32Z" transform="translate(-0.84 -1)"/><path class="cls-1" d="M78.81,110.89H76.38v-9.77q0-1.75.08-2.77-0.24.25-.58,0.55t-2.32,1.9l-1.22-1.54,4.45-3.5h2v15.12h0Z" transform="translate(-0.84 -1)"/><path class="cls-1" d="M107.33,106.78a3.81,3.81,0,0,1-1.46,3.17,6.35,6.35,0,0,1-4,1.15,9.6,9.6,0,0,1-4.2-.8V108a11.46,11.46,0,0,0,2.2.77A9.28,9.28,0,0,0,102,109a3.45,3.45,0,0,0,2.17-.56,1.82,1.82,0,0,0,.7-1.5,1.88,1.88,0,0,0-.64-1.44,9.65,9.65,0,0,0-2.65-1.4,7,7,0,0,1-2.92-1.91,4.05,4.05,0,0,1-.85-2.59,3.62,3.62,0,0,1,1.35-3,5.58,5.58,0,0,1,3.61-1.09,10.6,10.6,0,0,1,4.32,1l-0.79,2a9.46,9.46,0,0,0-3.6-.85,2.77,2.77,0,0,0-1.82.52,1.72,1.72,0,0,0-.62,1.38,2,2,0,0,0,.25,1,2.54,2.54,0,0,0,.82.79,13.87,13.87,0,0,0,2,1,11.25,11.25,0,0,1,2.44,1.29A3.82,3.82,0,0,1,107,105,4.1,4.1,0,0,1,107.33,106.78Z" transform="translate(-0.84 -1)"/><path class="cls-1" d="M113.73,111.09a5.53,5.53,0,0,1-4.17-1.56,5.91,5.91,0,0,1-1.5-4.29,6.48,6.48,0,0,1,1.4-4.41,4.83,4.83,0,0,1,3.84-1.6,4.72,4.72,0,0,1,3.58,1.38,5.26,5.26,0,0,1,1.31,3.79v1.31h-7.62a3.75,3.75,0,0,0,.9,2.56,3.13,3.13,0,0,0,2.39.9,8.86,8.86,0,0,0,1.89-.19,9.89,9.89,0,0,0,1.88-.64v2a7.49,7.49,0,0,1-1.8.6A11,11,0,0,1,113.73,111.09Zm-0.44-10a2.44,2.44,0,0,0-1.86.73,3.51,3.51,0,0,0-.83,2.14h5.19a3.17,3.17,0,0,0-.68-2.15A2.33,2.33,0,0,0,113.29,101.08Z" transform="translate(-0.84 -1)"/><path class="cls-1" d="M126.83,110.89l-0.49-1.59h-0.08a4.69,4.69,0,0,1-1.67,1.42,5.26,5.26,0,0,1-2.15.38,3.64,3.64,0,0,1-2.63-.91,3.4,3.4,0,0,1-.95-2.58,3,3,0,0,1,1.31-2.67,7.56,7.56,0,0,1,4-1l2-.06v-0.61a2.32,2.32,0,0,0-.51-1.64,2.09,2.09,0,0,0-1.59-.54,5.53,5.53,0,0,0-1.69.26,12.91,12.91,0,0,0-1.55.61L120,100.23a8.48,8.48,0,0,1,2-.74,9.37,9.37,0,0,1,2.09-.25,5,5,0,0,1,3.29,1,3.73,3.73,0,0,1,1.11,3v7.71h-1.74Zm-3.62-1.66a3,3,0,0,0,2.13-.74,2.69,2.69,0,0,0,.8-2.07v-1l-1.47.06a5,5,0,0,0-2.5.57,1.74,1.74,0,0,0-.78,1.57,1.53,1.53,0,0,0,.46,1.18A2,2,0,0,0,123.21,109.23Z" transform="translate(-0.84 -1)"/><path class="cls-1" d="M138.37,107.63a3,3,0,0,1-1.22,2.57,5.85,5.85,0,0,1-3.5.89,8.26,8.26,0,0,1-3.67-.69v-2.1a9,9,0,0,0,3.76.93q2.25,0,2.24-1.35a1.08,1.08,0,0,0-.25-0.72,3,3,0,0,0-.82-0.6,14.17,14.17,0,0,0-1.58-.7,7.34,7.34,0,0,1-2.67-1.53,2.83,2.83,0,0,1-.7-2,2.61,2.61,0,0,1,1.18-2.28,5.62,5.62,0,0,1,3.22-.81,9.13,9.13,0,0,1,3.82.82l-0.79,1.83a8.5,8.5,0,0,0-3.11-.77q-1.92,0-1.92,1.1a1.1,1.1,0,0,0,.5.91,11,11,0,0,0,2.19,1,10,10,0,0,1,2.06,1,3,3,0,0,1,1,1.05A3,3,0,0,1,138.37,107.63Z" transform="translate(-0.84 -1)"/><path class="cls-1" d="M149.88,105.14a6.24,6.24,0,0,1-1.44,4.38,5.15,5.15,0,0,1-4,1.57,5.47,5.47,0,0,1-2.83-.72,4.78,4.78,0,0,1-1.89-2.08,7.07,7.07,0,0,1-.66-3.14,6.21,6.21,0,0,1,1.43-4.35,5.18,5.18,0,0,1,4-1.56,5,5,0,0,1,3.93,1.6A6.18,6.18,0,0,1,149.88,105.14Zm-8.33,0q0,4,2.93,4t2.9-4q0-3.92-2.92-3.92a2.49,2.49,0,0,0-2.22,1A5.16,5.16,0,0,0,141.55,105.14Z" transform="translate(-0.84 -1)"/><path class="cls-1" d="M161.46,110.89H159v-7a3.09,3.09,0,0,0-.53-2,2.06,2.06,0,0,0-1.69-.65,2.69,2.69,0,0,0-2.26.91,5,5,0,0,0-.71,3.05v5.7H151.4V99.44h1.9l0.34,1.5h0.12a3.4,3.4,0,0,1,1.47-1.26,4.93,4.93,0,0,1,2.11-.44q4.12,0,4.12,4.19v7.46Z" transform="translate(-0.84 -1)"/><path class="cls-1" d="M55.57,80.31h6.92V89a19,19,0,0,1-6.2,1,7.49,7.49,0,0,1-5.73-2.15,8.61,8.61,0,0,1-2-6.13,8.05,8.05,0,0,1,2.22-6A8.52,8.52,0,0,1,57,73.44a13.83,13.83,0,0,1,2.86.29,12,12,0,0,1,2.34.72l-1.37,3.4A8.49,8.49,0,0,0,57,77a3.62,3.62,0,0,0-2.93,1.23,5.34,5.34,0,0,0-1,3.53A5.41,5.41,0,0,0,54,85.18a3.25,3.25,0,0,0,2.7,1.18,7.89,7.89,0,0,0,1.78-.19V83.66H55.57V80.31Z" transform="translate(-0.84 -1)"/><path class="cls-1" d="M78,81.34a8.29,8.29,0,0,1-2.21,6.19A8.49,8.49,0,0,1,69.6,89.7H64.41v-16H70a8.37,8.37,0,0,1,6,2A7.45,7.45,0,0,1,78,81.34Zm-4.5.15a5.1,5.1,0,0,0-.87-3.27A3.22,3.22,0,0,0,70,77.17H68.75v9h1A3.5,3.5,0,0,0,72.61,85,5.53,5.53,0,0,0,73.53,81.5Z" transform="translate(-0.84 -1)"/><path class="cls-1" d="M86,80.31h6.92V89a19,19,0,0,1-6.2,1A7.49,7.49,0,0,1,81,87.77a8.61,8.61,0,0,1-2-6.13,8.05,8.05,0,0,1,2.22-6,8.52,8.52,0,0,1,6.21-2.16,13.83,13.83,0,0,1,2.86.29,12,12,0,0,1,2.34.72l-1.37,3.4A8.49,8.49,0,0,0,87.41,77a3.62,3.62,0,0,0-2.93,1.23,5.34,5.34,0,0,0-1,3.53,5.41,5.41,0,0,0,.94,3.43,3.25,3.25,0,0,0,2.7,1.18,7.89,7.89,0,0,0,1.78-.19V83.66H86V80.31Z" transform="translate(-0.84 -1)"/><path class="cls-6" d="M8.91,124H15.7a5.75,5.75,0,0,0,4.43-2.51L25.85,112a5.38,5.38,0,0,0-.12-4.71l-3.38-5.59Z" transform="translate(-0.84 -1)"/><path class="cls-7" d="M16.21,96.51L1.11,121.76C0.52,123,1.13,124,2.63,124H8.91l13.45-22.33L16.21,91.49a5.38,5.38,0,0,1,0,5" transform="translate(-0.84 -1)"/><path class="cls-8" d="M2.63,64C1,64,.38,65.13,1.2,66.51l24.53,40.74a5.38,5.38,0,0,1,.12,4.71l6-9.93L8.91,64H2.63Z" transform="translate(-0.84 -1)"/><path class="cls-9" d="M8.91,64l22.9,38,3.32-5.53a5.38,5.38,0,0,0,0-5l-15-25A5.76,5.76,0,0,0,15.7,64H8.91Z" transform="translate(-0.84 -1)"/><path class="cls-10" d="M116.07,144a7.6,7.6,0,0,1-8.36,8.36h-5.15v-16h5.51a8.27,8.27,0,0,1,5.92,2A7.48,7.48,0,0,1,116.07,144Zm-4.46.15a5.13,5.13,0,0,0-.87-3.27,3.19,3.19,0,0,0-2.63-1.06h-1.25v9h1a3.46,3.46,0,0,0,2.87-1.15A5.58,5.58,0,0,0,111.61,144.12Z" transform="translate(-0.84 -1)"/><path class="cls-10" d="M123.29,152.54a6.59,6.59,0,0,1-4.78-1.65,6.24,6.24,0,0,1-1.7-4.7,6.8,6.8,0,0,1,1.58-4.83,5.87,5.87,0,0,1,4.5-1.68,6,6,0,0,1,4.31,1.46,5.59,5.59,0,0,1,1.52,4.22v1.91H121.1a2.13,2.13,0,0,0,.76,1.63,2.94,2.94,0,0,0,1.94.59,9.28,9.28,0,0,0,2.06-.21,10.12,10.12,0,0,0,2-.73v3.08a7.45,7.45,0,0,1-2.07.71A14.17,14.17,0,0,1,123.29,152.54ZM123,142.6a1.75,1.75,0,0,0-1.26.48,2.24,2.24,0,0,0-.59,1.5h3.66a2.15,2.15,0,0,0-.51-1.44A1.66,1.66,0,0,0,123,142.6Z" transform="translate(-0.84 -1)"/><path class="cls-10" d="M133,152.32l-4.7-12.43h4.44l2.09,7.35,0,0.19c0,0.09,0,.19.07,0.31s0,0.25.06,0.38a2.9,2.9,0,0,1,0,.38h0.08a4.44,4.44,0,0,1,.2-1.24l2.19-7.37h4.43l-4.7,12.43H133Z" transform="translate(-0.84 -1)"/><path class="cls-10" d="M146.54,152.32h-4.23v-16h9.4v3.48h-5.17v3.06h4.77v3.48h-4.77v6h0Z" transform="translate(-0.84 -1)"/><path class="cls-10" d="M158.69,152.54a6.59,6.59,0,0,1-4.78-1.65,6.24,6.24,0,0,1-1.7-4.7,6.8,6.8,0,0,1,1.58-4.83,5.87,5.87,0,0,1,4.51-1.68,6,6,0,0,1,4.3,1.46,5.59,5.59,0,0,1,1.52,4.22v1.91H156.5a2.13,2.13,0,0,0,.76,1.63,2.94,2.94,0,0,0,1.94.59,9.3,9.3,0,0,0,2.06-.21,10.16,10.16,0,0,0,2-.73v3.08a7.45,7.45,0,0,1-2.07.71A14.21,14.21,0,0,1,158.69,152.54Zm-0.25-9.95a1.76,1.76,0,0,0-1.26.48,2.24,2.24,0,0,0-.59,1.5h3.66a2.16,2.16,0,0,0-.51-1.44A1.67,1.67,0,0,0,158.44,142.6Z" transform="translate(-0.84 -1)"/><path class="cls-10" d="M174.7,148.51a3.54,3.54,0,0,1-1.35,3,6.33,6.33,0,0,1-3.87,1,16.82,16.82,0,0,1-2.38-.15,10,10,0,0,1-2.07-.54v-3.43a12.85,12.85,0,0,0,2.17.72,9,9,0,0,0,2.11.29q1.38,0,1.38-.64a0.72,0.72,0,0,0-.39-0.59,17.52,17.52,0,0,0-2.25-1,5.6,5.6,0,0,1-2.37-1.6,3.66,3.66,0,0,1-.68-2.26,3.14,3.14,0,0,1,1.33-2.7,6.3,6.3,0,0,1,3.76-1,9.36,9.36,0,0,1,2.29.27,13.54,13.54,0,0,1,2.23.78l-1.15,2.76a12.67,12.67,0,0,0-1.8-.65,5.9,5.9,0,0,0-1.55-.27q-1,0-1,.52a0.64,0.64,0,0,0,.36.54,19.36,19.36,0,0,0,2.11.92,8.11,8.11,0,0,1,1.93,1.05,3.15,3.15,0,0,1,.94,1.21A4.25,4.25,0,0,1,174.7,148.51Z" transform="translate(-0.84 -1)"/><path class="cls-10" d="M181.76,149.15a6.3,6.3,0,0,0,2.06-.43v3.13a8.28,8.28,0,0,1-1.64.53,9.27,9.27,0,0,1-1.82.16,4,4,0,0,1-3.09-1.06,4.77,4.77,0,0,1-.95-3.25v-5.12h-1.49v-1.74l1.89-1.35,1.1-2.61h2.79v2.49h3v3.21h-3v4.84A1,1,0,0,0,181.76,149.15Z" transform="translate(-0.84 -1)"/><path class="cls-10" d="M60.44,173.89H50.19V172l3.9-3.92a33.48,33.48,0,0,0,2.29-2.51,6,6,0,0,0,.82-1.39,3.75,3.75,0,0,0,.26-1.4,2.12,2.12,0,0,0-.62-1.61,2.36,2.36,0,0,0-1.7-.59,4.53,4.53,0,0,0-1.68.32,7.87,7.87,0,0,0-1.88,1.16l-1.31-1.6A8.47,8.47,0,0,1,52.72,159a7.17,7.17,0,0,1,2.53-.45,5,5,0,0,1,3.38,1.1,3.72,3.72,0,0,1,1.27,3,5.21,5.21,0,0,1-.37,1.94,7.92,7.92,0,0,1-1.13,1.9,25.82,25.82,0,0,1-2.53,2.64l-2.63,2.54v0.1h7.18v2.14h0Z" transform="translate(-0.84 -1)"/><path class="cls-10" d="M71.26,166.32A10.75,10.75,0,0,1,70,172.18a4.78,4.78,0,0,1-7.7-.06,10.56,10.56,0,0,1-1.3-5.79q0-4,1.27-5.9a4.79,4.79,0,0,1,7.7.09A10.64,10.64,0,0,1,71.26,166.32Zm-7.81,0a11,11,0,0,0,.64,4.42,2.22,2.22,0,0,0,4.08,0,15.3,15.3,0,0,0,0-8.8,2.22,2.22,0,0,0-4.08,0A11.12,11.12,0,0,0,63.45,166.32Z" transform="translate(-0.84 -1)"/><path class="cls-10" d="M79,173.89H76.54v-9.77q0-1.75.08-2.77-0.24.25-.58,0.55t-2.32,1.9l-1.22-1.54,4.45-3.5h2v15.12h0Z" transform="translate(-0.84 -1)"/><path class="cls-10" d="M107.49,169.78a3.81,3.81,0,0,1-1.46,3.16,6.35,6.35,0,0,1-4,1.15,9.6,9.6,0,0,1-4.2-.8V171a11.46,11.46,0,0,0,2.2.77,9.28,9.28,0,0,0,2.17.28,3.45,3.45,0,0,0,2.17-.56,1.82,1.82,0,0,0,.7-1.5,1.88,1.88,0,0,0-.64-1.44,9.65,9.65,0,0,0-2.65-1.4,7,7,0,0,1-2.92-1.91,4.05,4.05,0,0,1-.85-2.59,3.62,3.62,0,0,1,1.35-3,5.58,5.58,0,0,1,3.61-1.09,10.6,10.6,0,0,1,4.32,1l-0.79,2a9.46,9.46,0,0,0-3.6-.85,2.77,2.77,0,0,0-1.82.52,1.72,1.72,0,0,0-.62,1.38,2,2,0,0,0,.25,1,2.54,2.54,0,0,0,.82.79,13.87,13.87,0,0,0,2,1,11.25,11.25,0,0,1,2.44,1.29,3.82,3.82,0,0,1,1.14,1.35A4.1,4.1,0,0,1,107.49,169.78Z" transform="translate(-0.84 -1)"/><path class="cls-10" d="M113.89,174.09a5.53,5.53,0,0,1-4.17-1.56,5.91,5.91,0,0,1-1.5-4.29,6.48,6.48,0,0,1,1.4-4.41,4.83,4.83,0,0,1,3.84-1.6,4.72,4.72,0,0,1,3.58,1.38,5.26,5.26,0,0,1,1.31,3.79v1.31h-7.62a3.75,3.75,0,0,0,.9,2.56,3.13,3.13,0,0,0,2.39.9,8.86,8.86,0,0,0,1.89-.19,9.89,9.89,0,0,0,1.88-.64v2a7.49,7.49,0,0,1-1.8.6A11,11,0,0,1,113.89,174.09Zm-0.44-10a2.44,2.44,0,0,0-1.86.73,3.51,3.51,0,0,0-.83,2.14h5.19a3.17,3.17,0,0,0-.68-2.15A2.33,2.33,0,0,0,113.44,164.08Z" transform="translate(-0.84 -1)"/><path class="cls-10" d="M127,173.89l-0.49-1.59h-0.08a4.69,4.69,0,0,1-1.67,1.42,5.26,5.26,0,0,1-2.15.38,3.64,3.64,0,0,1-2.63-.91,3.4,3.4,0,0,1-.95-2.58,3,3,0,0,1,1.31-2.67,7.56,7.56,0,0,1,4-1l2-.06v-0.61a2.32,2.32,0,0,0-.51-1.64,2.09,2.09,0,0,0-1.59-.54,5.53,5.53,0,0,0-1.69.26A12.91,12.91,0,0,0,121,165l-0.79-1.74a8.48,8.48,0,0,1,2-.74,9.37,9.37,0,0,1,2.09-.25,5,5,0,0,1,3.29,1,3.73,3.73,0,0,1,1.11,3v7.71H127Zm-3.62-1.66a3,3,0,0,0,2.13-.74,2.69,2.69,0,0,0,.8-2.07v-1l-1.47.06a5,5,0,0,0-2.5.57,1.74,1.74,0,0,0-.78,1.57,1.53,1.53,0,0,0,.46,1.18A2,2,0,0,0,123.36,172.23Z" transform="translate(-0.84 -1)"/><path class="cls-10" d="M138.53,170.63a3,3,0,0,1-1.22,2.57,5.85,5.85,0,0,1-3.5.9,8.26,8.26,0,0,1-3.67-.69v-2.1a9,9,0,0,0,3.76.93q2.25,0,2.24-1.35a1.08,1.08,0,0,0-.25-0.73,3,3,0,0,0-.82-0.6,14.17,14.17,0,0,0-1.58-.7,7.34,7.34,0,0,1-2.67-1.53,2.83,2.83,0,0,1-.7-2,2.61,2.61,0,0,1,1.18-2.28,5.62,5.62,0,0,1,3.22-.81,9.13,9.13,0,0,1,3.82.82l-0.79,1.83a8.5,8.5,0,0,0-3.11-.77q-1.92,0-1.92,1.1a1.1,1.1,0,0,0,.5.91,11,11,0,0,0,2.19,1,10,10,0,0,1,2.06,1,3,3,0,0,1,1,1.05A3,3,0,0,1,138.53,170.63Z" transform="translate(-0.84 -1)"/><path class="cls-10" d="M150,168.15a6.24,6.24,0,0,1-1.44,4.38,5.15,5.15,0,0,1-4,1.57,5.47,5.47,0,0,1-2.83-.73,4.78,4.78,0,0,1-1.89-2.08,7.07,7.07,0,0,1-.66-3.15,6.21,6.21,0,0,1,1.43-4.35,5.18,5.18,0,0,1,4-1.56,5,5,0,0,1,3.93,1.6A6.18,6.18,0,0,1,150,168.15Zm-8.33,0q0,4,2.93,4t2.9-4q0-3.92-2.92-3.92a2.49,2.49,0,0,0-2.22,1A5.17,5.17,0,0,0,141.71,168.15Z" transform="translate(-0.84 -1)"/><path class="cls-10" d="M161.62,173.89h-2.44v-7a3.09,3.09,0,0,0-.53-2,2.06,2.06,0,0,0-1.69-.65,2.69,2.69,0,0,0-2.26.91,5,5,0,0,0-.71,3.05v5.7h-2.43V162.45h1.9l0.34,1.5h0.12a3.4,3.4,0,0,1,1.47-1.26,4.93,4.93,0,0,1,2.11-.44q4.12,0,4.12,4.19v7.46Z" transform="translate(-0.84 -1)"/><path class="cls-10" d="M55.73,143.31h6.92V152a19,19,0,0,1-6.2,1,7.49,7.49,0,0,1-5.73-2.15,8.61,8.61,0,0,1-2-6.13,8.05,8.05,0,0,1,2.22-6,8.52,8.52,0,0,1,6.21-2.16,13.83,13.83,0,0,1,2.86.29,12,12,0,0,1,2.34.73L61,140.85a8.49,8.49,0,0,0-3.81-.85,3.62,3.62,0,0,0-2.93,1.23,5.34,5.34,0,0,0-1,3.53,5.41,5.41,0,0,0,.94,3.43,3.25,3.25,0,0,0,2.7,1.18,7.89,7.89,0,0,0,1.78-.19v-2.51H55.73v-3.35Z" transform="translate(-0.84 -1)"/><path class="cls-10" d="M78.18,144.35A8.29,8.29,0,0,1,76,150.53a8.48,8.48,0,0,1-6.21,2.17H64.57v-16h5.55a8.37,8.37,0,0,1,6,2A7.45,7.45,0,0,1,78.18,144.35Zm-4.5.15a5.1,5.1,0,0,0-.87-3.27,3.23,3.23,0,0,0-2.65-1.06H68.9v9h1a3.5,3.5,0,0,0,2.9-1.15A5.54,5.54,0,0,0,73.69,144.5Z" transform="translate(-0.84 -1)"/><path class="cls-10" d="M86.15,143.31h6.92V152a19,19,0,0,1-6.2,1,7.49,7.49,0,0,1-5.73-2.15,8.61,8.61,0,0,1-2-6.13,8.05,8.05,0,0,1,2.22-6,8.52,8.52,0,0,1,6.21-2.16,13.83,13.83,0,0,1,2.86.29,12,12,0,0,1,2.34.73l-1.37,3.4a8.49,8.49,0,0,0-3.81-.85,3.62,3.62,0,0,0-2.93,1.23,5.34,5.34,0,0,0-1,3.53,5.41,5.41,0,0,0,.94,3.43,3.25,3.25,0,0,0,2.7,1.18,7.89,7.89,0,0,0,1.78-.19v-2.51H86.15v-3.35Z" transform="translate(-0.84 -1)"/><path class="cls-11" d="M9.07,187h6.79a5.75,5.75,0,0,0,4.43-2.51L26,175a5.38,5.38,0,0,0-.12-4.71l-3.38-5.59Z" transform="translate(-0.84 -1)"/><path class="cls-12" d="M16.37,159.51L1.27,184.76C0.68,186,1.29,187,2.79,187H9.07l13.45-22.33-6.15-10.17a5.38,5.38,0,0,1,0,5" transform="translate(-0.84 -1)"/><path class="cls-13" d="M2.79,127c-1.61,0-2.25,1.13-1.42,2.51l24.53,40.74A5.38,5.38,0,0,1,26,175L32,165,9.07,127H2.79Z" transform="translate(-0.84 -1)"/><path class="cls-14" d="M9.07,127L32,165l3.32-5.53a5.38,5.38,0,0,0,0-5l-15-25A5.76,5.76,0,0,0,15.86,127H9.07Z" transform="translate(-0.84 -1)"/><text class="cls-15" transform="translate(80.42 46.9)">6</text><text class="cls-15" transform="translate(80.67 110.4)">6</text><text class="cls-16" transform="translate(80.42 173.4)">6</text></svg>