<?xml version="1.0" encoding="utf-8"?>
<!-- Generator: Adobe Illustrator 20.1.0, SVG Export Plug-In . SVG Version: 6.00 Build 0)  -->
<svg version="1.1" id="Layer_1" xmlns="http://www.w3.org/2000/svg" xmlns:xlink="http://www.w3.org/1999/xlink" x="0px" y="0px"
	 viewBox="0 0 10.1 11.9" style="enable-background:new 0 0 10.1 11.9;" xml:space="preserve">
<style type="text/css">
	.st0{fill:#4E4E4E;}
	.st1{fill:url(#SVGID_1_);}
	.st2{fill:url(#SVGID_2_);}
	.st3{fill:url(#SVGID_3_);}
	.st4{fill:url(#SVGID_4_);}
	.st5{enable-background:new    ;}
</style>
<title>logos</title>
<path class="st0" d="M7.9-18.2C8-15.9,7.2-13.7,5.7-12C4-10.5,1.8-9.7-0.5-9.9h-5.2v-16h5.5c2.2-0.1,4.3,0.6,5.9,2
	C7.2-22.4,8-20.3,7.9-18.2z M3.4-18.1c0.1-1.2-0.2-2.3-0.9-3.3c-0.6-0.7-1.6-1.1-2.6-1.1h-1.2v9h1c1.1,0.1,2.1-0.3,2.9-1.1
	C3.2-15.6,3.5-16.9,3.4-18.1L3.4-18.1z"/>
<path class="st0" d="M15.1-9.7c-1.7,0.1-3.5-0.5-4.8-1.6c-1.2-1.3-1.8-3-1.7-4.7c-0.1-1.8,0.4-3.5,1.6-4.8c1.2-1.2,2.8-1.8,4.5-1.7
	c1.6-0.1,3.1,0.4,4.3,1.5c1.1,1.1,1.6,2.7,1.5,4.2v1.9h-7.6c0,0.6,0.3,1.2,0.8,1.6c0.6,0.4,1.2,0.6,1.9,0.6c0.7,0,1.4-0.1,2.1-0.2
	c0.7-0.2,1.4-0.4,2-0.7v3.1c-0.7,0.3-1.3,0.6-2.1,0.7C16.7-9.7,15.9-9.7,15.1-9.7z M14.8-19.6c-0.5,0-0.9,0.2-1.3,0.5
	c-0.4,0.4-0.6,0.9-0.6,1.5h3.7c0-0.5-0.2-1-0.5-1.4C15.8-19.5,15.3-19.6,14.8-19.6L14.8-19.6z"/>
<path class="st0" d="M24.8-9.9l-4.7-12.4h4.4l2.1,7.4v0.2c0,0.1,0,0.2,0.1,0.3s0,0.2,0.1,0.4c0,0.1,0,0.3,0,0.4H27
	c0-0.4,0.1-0.8,0.2-1.2l2.2-7.4h4.4L29.1-9.9L24.8-9.9L24.8-9.9z"/>
<path class="st0" d="M38.3-9.9h-4.2v-16h9.4v3.5h-5.2v3.1h4.8v3.4h-4.8V-9.9L38.3-9.9L38.3-9.9z"/>
<path class="st0" d="M50.5-9.7c-1.7,0.1-3.5-0.5-4.8-1.6c-1.2-1.3-1.8-3-1.7-4.7c-0.1-1.8,0.4-3.5,1.6-4.8c1.2-1.2,2.8-1.8,4.5-1.7
	c1.6-0.1,3.1,0.4,4.3,1.5c1.1,1.1,1.6,2.7,1.5,4.2v1.9h-7.6c0,0.6,0.3,1.2,0.8,1.6c0.6,0.4,1.2,0.6,1.9,0.6c0.7,0,1.4-0.1,2.1-0.2
	c0.7-0.2,1.4-0.4,2-0.7v3.1c-0.7,0.3-1.3,0.6-2.1,0.7C52.2-9.7,51.3-9.7,50.5-9.7z M50.2-19.6c-0.5,0-0.9,0.2-1.3,0.5
	c-0.4,0.4-0.6,0.9-0.6,1.5H52c0-0.5-0.2-1-0.5-1.4C51.2-19.5,50.7-19.6,50.2-19.6L50.2-19.6z"/>
<path class="st0" d="M66.5-13.7c0.1,1.2-0.4,2.3-1.4,3c-1.1,0.7-2.5,1.1-3.9,1c-0.8,0-1.6,0-2.4-0.1c-0.7-0.1-1.4-0.3-2.1-0.5v-3.4
	c0.7,0.3,1.4,0.5,2.2,0.7c0.7,0.2,1.4,0.3,2.1,0.3c0.9,0,1.4-0.2,1.4-0.6c0-0.3-0.2-0.5-0.4-0.6c-0.7-0.4-1.5-0.7-2.2-1
	c-0.9-0.3-1.7-0.9-2.4-1.6c-0.5-0.7-0.7-1.5-0.7-2.3c0-1.1,0.5-2.1,1.3-2.7c1.1-0.7,2.4-1.1,3.8-1c0.8,0,1.5,0.1,2.3,0.3
	c0.8,0.2,1.5,0.5,2.2,0.8l-1.1,2.8c-0.6-0.3-1.2-0.5-1.8-0.6c-0.5-0.2-1-0.2-1.6-0.3c-0.7,0-1,0.2-1,0.5c0,0.2,0.2,0.4,0.4,0.5
	c0.7,0.3,1.4,0.7,2.1,0.9c0.7,0.3,1.3,0.6,1.9,1c0.4,0.3,0.7,0.7,0.9,1.2C66.4-14.9,66.5-14.3,66.5-13.7z"/>
<path class="st0" d="M73.6-13.1c0.7,0,1.4-0.2,2.1-0.4v3.1c-0.5,0.2-1.1,0.4-1.6,0.5c-0.6,0.1-1.2,0.2-1.8,0.2
	c-1.1,0.1-2.3-0.3-3.1-1.1c-0.7-0.9-1-2.1-0.9-3.2v-5.1h-1.5v-1.7l1.9-1.4l1.1-2.6h2.8v2.5h3v3.2h-3v4.8c-0.1,0.5,0.2,1.1,0.8,1.2
	C73.3-13,73.4-13,73.6-13.1z"/>
<path class="st0" d="M-47.8,11.7H-58V9.8l3.9-3.9c0.8-0.8,1.6-1.6,2.3-2.5c0.3-0.4,0.6-0.9,0.8-1.3c0.2-0.4,0.3-0.9,0.3-1.4
	c0-0.6-0.2-1.2-0.6-1.6c-0.5-0.4-1.1-0.6-1.7-0.6c-0.6,0-1.1,0.1-1.7,0.3c-0.7,0.3-1.3,0.7-1.9,1.2l-1.3-1.6
	c0.7-0.6,1.6-1.1,2.5-1.5c0.8-0.3,1.7-0.4,2.5-0.4c1.2-0.1,2.4,0.3,3.4,1.1c0.9,0.8,1.3,1.9,1.3,3c0,0.7-0.1,1.3-0.4,1.9
	c-0.3,0.7-0.7,1.3-1.1,1.9c-0.8,0.9-1.6,1.8-2.5,2.6l-2.6,2.5v0.1h7.2V11.7L-47.8,11.7L-47.8,11.7z"/>
<path class="st0" d="M-36.9,4.1c0.1,2-0.3,4.1-1.3,5.8c-1.6,2.1-4.6,2.5-6.7,1c-0.4-0.3-0.7-0.6-1-1c-1-1.8-1.4-3.8-1.3-5.8
	c0-2.7,0.4-4.6,1.3-5.9c1.6-2.1,4.6-2.5,6.7-0.9c0.4,0.3,0.7,0.6,1,1C-37.3,0.1-36.8,2.1-36.9,4.1z M-44.8,4.1
	c-0.1,1.5,0.1,3,0.6,4.4c0.5,1.1,1.8,1.6,2.9,1.2c0.5-0.2,0.9-0.6,1.2-1.2c0.5-1.4,0.7-2.9,0.7-4.4c0.1-1.5-0.1-3-0.7-4.4
	c-0.5-1.1-1.8-1.6-2.9-1.2c-0.5,0.2-0.9,0.6-1.2,1.2C-44.6,1.1-44.8,2.6-44.8,4.1z"/>
<path class="st0" d="M-29.2,11.7h-2.4V1.9c0-1.2,0-2.1,0.1-2.8c-0.2,0.2-0.4,0.3-0.6,0.5c-0.2,0.2-1,0.8-2.3,1.9L-35.7,0l4.4-3.5h2
	L-29.2,11.7L-29.2,11.7L-29.2,11.7z"/>
<path class="st0" d="M-0.7,7.6c0.1,1.2-0.5,2.4-1.5,3.2c-1.2,0.8-2.6,1.2-4,1.2c-1.4,0.1-2.9-0.2-4.2-0.8V8.8
	c0.7,0.3,1.4,0.6,2.2,0.8C-7.5,9.7-6.8,9.8-6,9.8c0.8,0.1,1.5-0.1,2.2-0.6c0.5-0.4,0.7-0.9,0.7-1.5c0-0.6-0.2-1.1-0.6-1.4
	c-0.8-0.6-1.7-1.1-2.7-1.4c-1.1-0.4-2.1-1-2.9-1.9c-0.6-0.7-0.9-1.7-0.8-2.6c-0.1-1.2,0.4-2.3,1.3-3c1-0.8,2.3-1.2,3.6-1.1
	c1.5,0,3,0.4,4.3,1l-0.8,2c-1.1-0.5-2.4-0.8-3.6-0.8C-6-1.6-6.6-1.4-7.2-1c-0.4,0.3-0.6,0.8-0.6,1.4c0,0.3,0.1,0.7,0.2,1
	C-7.3,1.7-7,1.9-6.7,2.1c0.6,0.4,1.3,0.7,2,1C-3.9,3.5-3,3.9-2.3,4.4C-1.8,4.8-1.3,5.2-1,5.8C-0.8,6.3-0.7,6.9-0.7,7.6z"/>
<path class="st0" d="M5.7,11.9c-1.5,0.1-3.1-0.5-4.2-1.6C0.5,9.1-0.1,7.6,0,6c-0.1-1.6,0.4-3.2,1.4-4.4c1-1.1,2.4-1.7,3.8-1.6
	c1.3-0.1,2.6,0.4,3.6,1.4c0.9,1,1.4,2.4,1.3,3.8v1.3H2.5c0,0.9,0.3,1.8,0.9,2.6c0.6,0.6,1.5,1,2.4,0.9c0.6,0,1.3-0.1,1.9-0.2
	C8.3,9.6,9,9.4,9.6,9.1v2c-0.6,0.3-1.2,0.5-1.8,0.6C7.1,11.8,6.4,11.9,5.7,11.9z M5.2,1.9c-0.7,0-1.4,0.2-1.9,0.7
	C2.9,3.2,2.6,4,2.6,4.8h5.2c0-0.8-0.2-1.5-0.7-2.2C6.6,2.1,5.9,1.8,5.2,1.9L5.2,1.9z"/>
<path class="st0" d="M18.8,11.7l-0.5-1.6h-0.1c-0.4,0.6-1,1.1-1.7,1.4c-0.7,0.3-1.4,0.4-2.2,0.4c-1,0.1-1.9-0.3-2.6-0.9
	c-0.7-0.7-1-1.6-0.9-2.6c-0.1-1.1,0.4-2.1,1.3-2.7c1.2-0.7,2.6-1,4-1l2-0.1V4.1c0-0.6-0.1-1.2-0.5-1.6c-0.4-0.4-1-0.6-1.6-0.5
	c-0.6,0-1.1,0.1-1.7,0.3c-0.5,0.2-1,0.4-1.6,0.6L12,1c0.6-0.3,1.3-0.6,2-0.7C14.6,0.1,15.3,0,16,0c1.2-0.1,2.3,0.3,3.3,1
	c0.8,0.8,1.2,1.9,1.1,3v7.7L18.8,11.7L18.8,11.7z M15.2,10c0.8,0,1.5-0.2,2.1-0.7c0.6-0.5,0.8-1.3,0.8-2.1v-1l-1.5,0.1
	c-0.9,0-1.7,0.2-2.5,0.6c-0.5,0.3-0.8,0.9-0.8,1.6c0,0.4,0.1,0.9,0.5,1.2C14.2,9.9,14.7,10,15.2,10z"/>
<path class="st0" d="M30.3,8.4c0.1,1-0.4,2-1.2,2.6c-1,0.7-2.3,1-3.5,0.9c-1.3,0-2.5-0.2-3.6-0.7V9.1c1.2,0.6,2.5,0.9,3.8,0.9
	c1.5,0,2.2-0.5,2.2-1.3c0-0.3-0.1-0.5-0.2-0.7c-0.2-0.2-0.5-0.4-0.8-0.6c-0.5-0.3-1-0.5-1.6-0.7c-1-0.3-1.9-0.8-2.7-1.5
	c-0.5-0.6-0.7-1.3-0.7-2c0-0.9,0.4-1.8,1.2-2.3c1-0.6,2.1-0.9,3.2-0.8c1.3,0,2.6,0.3,3.8,0.8l-0.8,1.8c-1-0.5-2-0.7-3.1-0.8
	c-1.3,0-1.9,0.4-1.9,1.1c0,0.4,0.2,0.7,0.5,0.9c0.7,0.4,1.4,0.7,2.2,1c0.7,0.3,1.4,0.6,2.1,1C29.9,6.5,30.4,7.4,30.3,8.4z"/>
<path class="st0" d="M41.8,5.9c0.1,1.6-0.4,3.2-1.4,4.4c-1,1.1-2.5,1.7-4,1.6c-1,0-2-0.2-2.8-0.7c-0.8-0.5-1.5-1.2-1.9-2.1
	C31.2,8.1,31,7,31,5.9c-0.1-1.6,0.4-3.1,1.4-4.3c1-1.1,2.5-1.6,4-1.6c1.5-0.1,2.9,0.5,3.9,1.6C41.4,2.8,41.9,4.4,41.8,5.9z
	 M33.5,5.9c0,2.7,1,4,2.9,4c2,0,2.9-1.3,2.9-4c0-2.6-1-3.9-2.9-3.9c-0.9-0.1-1.7,0.3-2.2,1C33.7,3.9,33.4,4.9,33.5,5.9z"/>
<path class="st0" d="M53.4,11.7H51v-7c0.1-0.7-0.1-1.4-0.5-2C50,2.2,49.4,2,48.7,2c-0.9-0.1-1.7,0.3-2.3,0.9c-0.6,0.9-0.8,2-0.7,3
	v5.7h-2.4V0.2h1.9l0.3,1.5h0.1c0.4-0.6,0.9-1,1.5-1.3C47.8,0.2,48.6,0,49.3,0c2.7,0,4.1,1.4,4.1,4.2L53.4,11.7L53.4,11.7z"/>
<path class="st0" d="M-52.5-18.9h6.9v8.7c-2,0.7-4.1,1-6.2,1c-2.1,0.1-4.2-0.7-5.7-2.1c-1.4-1.7-2.2-3.9-2-6.1
	c-0.1-2.2,0.7-4.4,2.2-6c1.7-1.6,3.9-2.4,6.2-2.3c1,0,1.9,0.1,2.9,0.3c0.8,0.2,1.6,0.4,2.3,0.7l-1.4,3.4c-1.2-0.6-2.5-0.9-3.8-0.8
	c-1.1-0.1-2.2,0.4-2.9,1.2c-0.7,1-1.1,2.3-1,3.5c-0.1,1.2,0.2,2.4,0.9,3.4c0.7,0.8,1.7,1.2,2.7,1.2c0.6,0,1.2-0.1,1.8-0.2v-2.5h-2.9
	V-18.9z"/>
<path class="st0" d="M-30-17.9c0.1,2.3-0.7,4.5-2.2,6.2c-1.7,1.5-3.9,2.3-6.2,2.2h-5.2v-16h5.6c2.2-0.1,4.3,0.6,6,2
	C-30.6-22-29.9-20-30-17.9z M-34.5-17.7c0.1-1.2-0.2-2.3-0.9-3.3c-0.7-0.7-1.6-1.1-2.6-1.1h-1.2v9h1c1.1,0.1,2.1-0.4,2.9-1.2
	C-34.7-15.3-34.4-16.5-34.5-17.7L-34.5-17.7z"/>
<path class="st0" d="M-22-18.9h6.9v8.7c-2,0.7-4.1,1-6.2,1c-2.1,0.1-4.2-0.7-5.7-2.2c-1.4-1.7-2.2-3.9-2-6.1c-0.1-2.2,0.7-4.4,2.2-6
	c1.7-1.5,3.9-2.3,6.2-2.2c1,0,1.9,0.1,2.9,0.3c0.8,0.2,1.6,0.4,2.3,0.7l-1.4,3.4c-1.2-0.6-2.5-0.9-3.8-0.9c-1.1-0.1-2.2,0.4-2.9,1.2
	c-0.7,1-1.1,2.3-1,3.5c-0.1,1.2,0.2,2.4,0.9,3.4c0.7,0.8,1.7,1.2,2.7,1.2c0.6,0,1.2-0.1,1.8-0.2v-2.5H-22V-18.9z"/>
<radialGradient id="SVGID_1_" cx="1324.1808" cy="1689.2964" r="20.11" gradientTransform="matrix(0.5 0 0 0.5 -751.3846 -830.6418)" gradientUnits="userSpaceOnUse">
	<stop  offset="0" style="stop-color:#FFCF4F"/>
	<stop  offset="1" style="stop-color:#F4C236"/>
</radialGradient>
<path class="st1" d="M-99.1,24.8h6.8c1.8-0.1,3.4-1,4.4-2.5l5.7-9.5c0.7-1.5,0.6-3.2-0.1-4.7l-3.4-5.6L-99.1,24.8z"/>
<radialGradient id="SVGID_2_" cx="1312.1309" cy="1679.0864" r="27.66" gradientTransform="matrix(0.5 0 0 0.5 -751.3846 -830.6418)" gradientUnits="userSpaceOnUse">
	<stop  offset="0" style="stop-color:#08A960"/>
	<stop  offset="1" style="stop-color:#07914B"/>
</radialGradient>
<path class="st2" d="M-91.8-2.7l-15.1,25.2c-0.6,1.2,0,2.2,1.5,2.2h6.3l13.5-22.3l-6.2-10.2C-91-6.2-91-4.3-91.8-2.7"/>
<radialGradient id="SVGID_3_" cx="1321.5808" cy="1639.4064" r="40.54" gradientTransform="matrix(0.5 0 0 0.5 -751.3846 -830.6418)" gradientUnits="userSpaceOnUse">
	<stop  offset="0" style="stop-color:#567FC0"/>
	<stop  offset="1" style="stop-color:#557FC0"/>
</radialGradient>
<path class="st3" d="M-105.4-35.2c-1.6,0-2.2,1.1-1.4,2.5L-82.3,8c0.8,1.5,0.8,3.2,0.1,4.7l6-9.9l-22.9-38.1H-105.4z"/>
<radialGradient id="SVGID_4_" cx="1333.6508" cy="1629.4364" r="33.06" gradientTransform="matrix(0.5 0 0 0.5 -751.3846 -830.6418)" gradientUnits="userSpaceOnUse">
	<stop  offset="0" style="stop-color:#E14C40"/>
	<stop  offset="1" style="stop-color:#CD392D"/>
</radialGradient>
<path class="st4" d="M-99.1-35.2l22.9,38l3.3-5.5c0.8-1.6,0.8-3.4,0-5l-15-25c-1-1.5-2.7-2.4-4.4-2.5H-99.1z"/>
<text transform="matrix(1 0 0 1 -26.7892 11.6764)" class="st0" style="font-family:'MyriadPro-Bold'; font-size:23px;">6</text>
</svg>
