<?xml version="1.0" encoding="utf-8"?>
<!-- Generator: Adobe Illustrator 20.1.0, SVG Export Plug-In . SVG Version: 6.00 Build 0)  -->
<svg version="1.1" id="Layer_1" xmlns="http://www.w3.org/2000/svg" xmlns:xlink="http://www.w3.org/1999/xlink" x="0px" y="0px"
	 viewBox="0 0 186.2 63.3" style="enable-background:new 0 0 186.2 63.3;" xml:space="preserve">
<style type="text/css">
	.st0{fill:#4E4E4E;}
	.st1{fill:url(#SVGID_1_);}
	.st2{fill:url(#SVGID_2_);}
	.st3{fill:url(#SVGID_3_);}
	.st4{fill:url(#SVGID_4_);}
	.st5{font-family:'MyriadPro-Bold';}
	.st6{font-size:23px;}
</style>
<title>logos</title>
<path class="st0" d="M116.4,20.3c0.1,2.3-0.7,4.5-2.2,6.2c-1.7,1.5-3.9,2.3-6.2,2.1h-5.2v-16h5.5c2.2-0.1,4.3,0.6,5.9,2
	C115.7,16.1,116.5,18.2,116.4,20.3z M111.9,20.4c0.1-1.2-0.2-2.3-0.9-3.3c-0.6-0.7-1.6-1.1-2.6-1.1h-1.2v9h1
	c1.1,0.1,2.1-0.3,2.9-1.1C111.7,22.9,112,21.6,111.9,20.4L111.9,20.4z"/>
<path class="st0" d="M123.6,28.8c-1.7,0.1-3.5-0.5-4.8-1.6c-1.2-1.3-1.8-3-1.7-4.7c-0.1-1.8,0.4-3.5,1.6-4.8
	c1.2-1.2,2.8-1.8,4.5-1.7c1.6-0.1,3.1,0.4,4.3,1.5c1.1,1.1,1.6,2.7,1.5,4.2v1.9h-7.6c0,0.6,0.3,1.2,0.8,1.6c0.6,0.4,1.2,0.6,1.9,0.6
	s1.4-0.1,2.1-0.2c0.7-0.2,1.4-0.4,2-0.7V28c-0.7,0.3-1.3,0.6-2.1,0.7C125.2,28.8,124.4,28.8,123.6,28.8z M123.3,18.9
	c-0.5,0-0.9,0.2-1.3,0.5c-0.4,0.4-0.6,0.9-0.6,1.5h3.7c0-0.5-0.2-1-0.5-1.4C124.3,19,123.8,18.9,123.3,18.9L123.3,18.9z"/>
<path class="st0" d="M133.3,28.6l-4.7-12.4h4.4l2.1,7.4v0.2c0,0.1,0,0.2,0.1,0.3s0,0.2,0.1,0.4c0,0.1,0,0.3,0,0.4h0.2
	c0-0.4,0.1-0.8,0.2-1.2l2.2-7.4h4.4l-4.7,12.3H133.3L133.3,28.6z"/>
<path class="st0" d="M146.8,28.6h-4.2v-16h9.4v3.5h-5.2v3.1h4.8v3.4h-4.8V28.6L146.8,28.6L146.8,28.6z"/>
<path class="st0" d="M159,28.8c-1.7,0.1-3.5-0.5-4.8-1.6c-1.2-1.3-1.8-3-1.7-4.7c-0.1-1.8,0.4-3.5,1.6-4.8c1.2-1.2,2.8-1.8,4.5-1.7
	c1.6-0.1,3.1,0.4,4.3,1.5c1.1,1.1,1.6,2.7,1.5,4.2v1.9h-7.6c0,0.6,0.3,1.2,0.8,1.6c0.6,0.4,1.2,0.6,1.9,0.6s1.4-0.1,2.1-0.2
	c0.7-0.2,1.4-0.4,2-0.7V28c-0.7,0.3-1.3,0.6-2.1,0.7C160.7,28.8,159.8,28.8,159,28.8z M158.7,18.9c-0.5,0-0.9,0.2-1.3,0.5
	c-0.4,0.4-0.6,0.9-0.6,1.5h3.7c0-0.5-0.2-1-0.5-1.4C159.7,19,159.2,18.9,158.7,18.9L158.7,18.9z"/>
<path class="st0" d="M175,24.8c0.1,1.2-0.4,2.3-1.4,3c-1.1,0.7-2.5,1.1-3.9,1c-0.8,0-1.6,0-2.4-0.1c-0.7-0.1-1.4-0.3-2.1-0.5v-3.4
	c0.7,0.3,1.4,0.5,2.2,0.7c0.7,0.2,1.4,0.3,2.1,0.3c0.9,0,1.4-0.2,1.4-0.6c0-0.3-0.2-0.5-0.4-0.6c-0.7-0.4-1.5-0.7-2.2-1
	c-0.9-0.3-1.7-0.9-2.4-1.6c-0.5-0.7-0.7-1.5-0.7-2.3c0-1.1,0.5-2.1,1.3-2.7c1.1-0.7,2.4-1.1,3.8-1c0.8,0,1.5,0.1,2.3,0.3
	c0.8,0.2,1.5,0.5,2.2,0.8l-1.1,2.8c-0.6-0.3-1.2-0.5-1.8-0.6c-0.5-0.2-1-0.2-1.6-0.3c-0.7,0-1,0.2-1,0.5c0,0.2,0.2,0.4,0.4,0.5
	c0.7,0.3,1.4,0.7,2.1,0.9c0.7,0.3,1.3,0.6,1.9,1c0.4,0.3,0.7,0.7,0.9,1.2C174.9,23.6,175,24.2,175,24.8z"/>
<path class="st0" d="M182.1,25.4c0.7,0,1.4-0.2,2.1-0.4v3.1c-0.5,0.2-1.1,0.4-1.6,0.5c-0.6,0.1-1.2,0.2-1.8,0.2
	c-1.1,0.1-2.3-0.3-3.1-1.1c-0.7-0.9-1-2.1-0.9-3.2v-5.1h-1.5v-1.7l1.9-1.4l1.1-2.6h2.8v2.5h3v3.2h-3v4.8c-0.1,0.5,0.2,1.1,0.8,1.2
	C181.8,25.5,181.9,25.5,182.1,25.4z"/>
<path class="st0" d="M60.7,50.2H50.5v-1.9l3.9-3.9c0.8-0.8,1.6-1.6,2.3-2.5c0.3-0.4,0.6-0.9,0.8-1.3c0.2-0.4,0.3-0.9,0.3-1.4
	c0-0.6-0.2-1.2-0.6-1.6c-0.5-0.4-1.1-0.6-1.7-0.6c-0.6,0-1.1,0.1-1.7,0.3c-0.7,0.3-1.3,0.7-1.9,1.2l-1.3-1.6
	c0.7-0.6,1.6-1.1,2.5-1.5c0.8-0.3,1.7-0.4,2.5-0.4c1.2-0.1,2.4,0.3,3.4,1.1c0.9,0.8,1.3,1.9,1.3,3c0,0.7-0.1,1.3-0.4,1.9
	c-0.3,0.7-0.7,1.3-1.1,1.9c-0.8,0.9-1.6,1.8-2.5,2.6L53.7,48v0.1h7.2v2.1H60.7L60.7,50.2z"/>
<path class="st0" d="M71.6,42.6c0.1,2-0.3,4.1-1.3,5.8c-1.6,2.1-4.6,2.5-6.7,1c-0.4-0.3-0.7-0.6-1-1c-1-1.8-1.4-3.8-1.3-5.8
	c0-2.7,0.4-4.6,1.3-5.9c1.6-2.1,4.6-2.5,6.7-0.9c0.4,0.3,0.7,0.6,1,1C71.2,38.6,71.7,40.6,71.6,42.6z M63.7,42.6
	c-0.1,1.5,0.1,3,0.6,4.4c0.5,1.1,1.8,1.6,2.9,1.2c0.5-0.2,0.9-0.6,1.2-1.2c0.5-1.4,0.7-2.9,0.7-4.4c0.1-1.5-0.1-3-0.7-4.4
	c-0.5-1.1-1.8-1.6-2.9-1.2c-0.5,0.2-0.9,0.6-1.2,1.2C63.9,39.6,63.7,41.1,63.7,42.6z"/>
<path class="st0" d="M79.3,50.2h-2.4v-9.8c0-1.2,0-2.1,0.1-2.8c-0.2,0.2-0.4,0.3-0.6,0.5c-0.2,0.2-1,0.8-2.3,1.9l-1.3-1.5l4.4-3.5h2
	L79.3,50.2L79.3,50.2L79.3,50.2z"/>
<path class="st0" d="M107.8,46.1c0.1,1.2-0.5,2.4-1.5,3.2c-1.2,0.8-2.6,1.2-4,1.2c-1.4,0.1-2.9-0.2-4.2-0.8v-2.4
	c0.7,0.3,1.4,0.6,2.2,0.8c0.7,0.1,1.4,0.2,2.2,0.2c0.8,0.1,1.5-0.1,2.2-0.6c0.5-0.4,0.7-0.9,0.7-1.5s-0.2-1.1-0.6-1.4
	c-0.8-0.6-1.7-1.1-2.7-1.4c-1.1-0.4-2.1-1-2.9-1.9c-0.6-0.7-0.9-1.7-0.8-2.6c-0.1-1.2,0.4-2.3,1.3-3c1-0.8,2.3-1.2,3.6-1.1
	c1.5,0,3,0.4,4.3,1l-0.8,2c-1.1-0.5-2.4-0.8-3.6-0.8c-0.7-0.1-1.3,0.1-1.9,0.5c-0.4,0.3-0.6,0.8-0.6,1.4c0,0.3,0.1,0.7,0.2,1
	c0.3,0.3,0.6,0.5,0.9,0.7c0.6,0.4,1.3,0.7,2,1c0.8,0.4,1.7,0.8,2.4,1.3c0.5,0.4,1,0.8,1.3,1.4C107.7,44.8,107.8,45.4,107.8,46.1z"/>
<path class="st0" d="M114.2,50.4c-1.5,0.1-3.1-0.5-4.2-1.6c-1-1.2-1.6-2.7-1.5-4.3c-0.1-1.6,0.4-3.2,1.4-4.4c1-1.1,2.4-1.7,3.8-1.6
	c1.3-0.1,2.6,0.4,3.6,1.4c0.9,1,1.4,2.4,1.3,3.8V45H111c0,0.9,0.3,1.8,0.9,2.6c0.6,0.6,1.5,1,2.4,0.9c0.6,0,1.3-0.1,1.9-0.2
	c0.6-0.2,1.3-0.4,1.9-0.7v2c-0.6,0.3-1.2,0.5-1.8,0.6C115.6,50.3,114.9,50.4,114.2,50.4z M113.7,40.4c-0.7,0-1.4,0.2-1.9,0.7
	c-0.4,0.6-0.7,1.4-0.7,2.2h5.2c0-0.8-0.2-1.5-0.7-2.2C115.1,40.6,114.4,40.3,113.7,40.4L113.7,40.4z"/>
<path class="st0" d="M127.3,50.2l-0.5-1.6h-0.1c-0.4,0.6-1,1.1-1.7,1.4c-0.7,0.3-1.4,0.4-2.2,0.4c-1,0.1-1.9-0.3-2.6-0.9
	c-0.7-0.7-1-1.6-0.9-2.6c-0.1-1.1,0.4-2.1,1.3-2.7c1.2-0.7,2.6-1,4-1l2-0.1v-0.5c0-0.6-0.1-1.2-0.5-1.6c-0.4-0.4-1-0.6-1.6-0.5
	c-0.6,0-1.1,0.1-1.7,0.3c-0.5,0.2-1,0.4-1.6,0.6l-0.7-1.9c0.6-0.3,1.3-0.6,2-0.7c0.6-0.2,1.3-0.3,2-0.3c1.2-0.1,2.3,0.3,3.3,1
	c0.8,0.8,1.2,1.9,1.1,3v7.7H127.3L127.3,50.2z M123.7,48.5c0.8,0,1.5-0.2,2.1-0.7c0.6-0.5,0.8-1.3,0.8-2.1v-1l-1.5,0.1
	c-0.9,0-1.7,0.2-2.5,0.6c-0.5,0.3-0.8,0.9-0.8,1.6c0,0.4,0.1,0.9,0.5,1.2C122.7,48.4,123.2,48.5,123.7,48.5z"/>
<path class="st0" d="M138.8,46.9c0.1,1-0.4,2-1.2,2.6c-1,0.7-2.3,1-3.5,0.9c-1.3,0-2.5-0.2-3.6-0.7v-2.1c1.2,0.6,2.5,0.9,3.8,0.9
	c1.5,0,2.2-0.5,2.2-1.3c0-0.3-0.1-0.5-0.2-0.7c-0.2-0.2-0.5-0.4-0.8-0.6c-0.5-0.3-1-0.5-1.6-0.7c-1-0.3-1.9-0.8-2.7-1.5
	c-0.5-0.6-0.7-1.3-0.7-2c0-0.9,0.4-1.8,1.2-2.3c1-0.6,2.1-0.9,3.2-0.8c1.3,0,2.6,0.3,3.8,0.8l-0.8,1.8c-1-0.5-2-0.7-3.1-0.8
	c-1.3,0-1.9,0.4-1.9,1.1c0,0.4,0.2,0.7,0.5,0.9c0.7,0.4,1.4,0.7,2.2,1c0.7,0.3,1.4,0.6,2.1,1C138.4,45,138.9,45.9,138.8,46.9z"/>
<path class="st0" d="M150.3,44.4c0.1,1.6-0.4,3.2-1.4,4.4c-1,1.1-2.5,1.7-4,1.6c-1,0-2-0.2-2.8-0.7c-0.8-0.5-1.5-1.2-1.9-2.1
	c-0.5-1-0.7-2.1-0.7-3.2c-0.1-1.6,0.4-3.1,1.4-4.3c1-1.1,2.5-1.6,4-1.6c1.5-0.1,2.9,0.5,3.9,1.6C149.9,41.3,150.4,42.9,150.3,44.4z
	 M142,44.4c0,2.7,1,4,2.9,4c2,0,2.9-1.3,2.9-4c0-2.6-1-3.9-2.9-3.9c-0.9-0.1-1.7,0.3-2.2,1C142.2,42.4,141.9,43.4,142,44.4z"/>
<path class="st0" d="M161.9,50.2h-2.4v-7c0.1-0.7-0.1-1.4-0.5-2c-0.5-0.5-1.1-0.7-1.8-0.7c-0.9-0.1-1.7,0.3-2.3,0.9
	c-0.6,0.9-0.8,2-0.7,3v5.7h-2.4V38.7h1.9l0.3,1.5h0.1c0.4-0.6,0.9-1,1.5-1.3c0.7-0.2,1.5-0.4,2.2-0.4c2.7,0,4.1,1.4,4.1,4.2V50.2
	L161.9,50.2z"/>
<path class="st0" d="M56,19.6h6.9v8.7c-2,0.7-4.1,1-6.2,1c-2.1,0.1-4.2-0.7-5.7-2.1c-1.4-1.7-2.2-3.9-2-6.1c-0.1-2.2,0.7-4.4,2.2-6
	c1.7-1.6,3.9-2.4,6.2-2.3c1,0,1.9,0.1,2.9,0.3c0.8,0.2,1.6,0.4,2.3,0.7l-1.4,3.4c-1.2-0.6-2.5-0.9-3.8-0.8c-1.1-0.1-2.2,0.4-2.9,1.2
	c-0.7,1-1.1,2.3-1,3.5c-0.1,1.2,0.2,2.4,0.9,3.4c0.7,0.8,1.7,1.2,2.7,1.2c0.6,0,1.2-0.1,1.8-0.2V23H56V19.6z"/>
<path class="st0" d="M78.5,20.6c0.1,2.3-0.7,4.5-2.2,6.2c-1.7,1.5-3.9,2.3-6.2,2.2h-5.2V13h5.6c2.2-0.1,4.3,0.6,6,2
	C77.9,16.5,78.6,18.5,78.5,20.6z M74,20.8c0.1-1.2-0.2-2.3-0.9-3.3c-0.7-0.7-1.6-1.1-2.6-1.1h-1.2v9h1c1.1,0.1,2.1-0.4,2.9-1.2
	C73.8,23.2,74.1,22,74,20.8L74,20.8z"/>
<path class="st0" d="M86.5,19.6h6.9v8.7c-2,0.7-4.1,1-6.2,1c-2.1,0.1-4.2-0.7-5.7-2.2c-1.4-1.7-2.2-3.9-2-6.1
	c-0.1-2.2,0.7-4.4,2.2-6c1.7-1.5,3.9-2.3,6.2-2.2c1,0,1.9,0.1,2.9,0.3c0.8,0.2,1.6,0.4,2.3,0.7l-1.4,3.4c-1.2-0.6-2.5-0.9-3.8-0.9
	c-1.1-0.1-2.2,0.4-2.9,1.2c-0.7,1-1.1,2.3-1,3.5c-0.1,1.2,0.2,2.4,0.9,3.4c0.7,0.8,1.7,1.2,2.7,1.2c0.6,0,1.2-0.1,1.8-0.2v-2.5h-2.9
	V19.6z"/>
<radialGradient id="SVGID_1_" cx="2386.6765" cy="-2169.824" r="20.11" gradientTransform="matrix(0.5 0 0 -0.5 -1174.1367 -1032.433)" gradientUnits="userSpaceOnUse">
	<stop  offset="0" style="stop-color:#FFCF4F"/>
	<stop  offset="1" style="stop-color:#F4C236"/>
</radialGradient>
<path class="st1" d="M9.4,63.3h6.8c1.8-0.1,3.4-1,4.4-2.5l5.7-9.5c0.7-1.5,0.6-3.2-0.1-4.7L22.8,41L9.4,63.3z"/>
<radialGradient id="SVGID_2_" cx="2374.6265" cy="-2159.614" r="27.66" gradientTransform="matrix(0.5 0 0 -0.5 -1174.1367 -1032.433)" gradientUnits="userSpaceOnUse">
	<stop  offset="0" style="stop-color:#08A960"/>
	<stop  offset="1" style="stop-color:#07914B"/>
</radialGradient>
<path class="st2" d="M16.7,35.8L1.6,61c-0.6,1.2,0,2.2,1.5,2.2h6.3l13.5-22.3l-6.2-10.2C17.5,32.3,17.5,34.2,16.7,35.8"/>
<radialGradient id="SVGID_3_" cx="2384.0764" cy="-2119.9338" r="40.54" gradientTransform="matrix(0.5 0 0 -0.5 -1174.1367 -1032.433)" gradientUnits="userSpaceOnUse">
	<stop  offset="0" style="stop-color:#567FC0"/>
	<stop  offset="1" style="stop-color:#557FC0"/>
</radialGradient>
<path class="st3" d="M3.1,3.3c-1.6,0-2.2,1.1-1.4,2.5l24.5,40.7c0.8,1.5,0.8,3.2,0.1,4.7l6-9.9L9.4,3.2L3.1,3.3L3.1,3.3z"/>
<radialGradient id="SVGID_4_" cx="2396.1465" cy="-2109.9639" r="33.06" gradientTransform="matrix(0.5 0 0 -0.5 -1174.1367 -1032.433)" gradientUnits="userSpaceOnUse">
	<stop  offset="0" style="stop-color:#E14C40"/>
	<stop  offset="1" style="stop-color:#CD392D"/>
</radialGradient>
<path class="st4" d="M9.4,3.3l22.9,38l3.3-5.5c0.8-1.6,0.8-3.4,0-5l-15-25c-1-1.5-2.7-2.4-4.4-2.5H9.4z"/>
<text transform="matrix(1 0 0 1 81.7065 50.1489)" class="st0 st5 st6">6</text>
</svg>
